<svg xmlns="http://www.w3.org/2000/svg" width="91" height="216">
  <g fill="none">
    <path fill="#FFC203" d="M8 0l2.497 5.136L16 6l-3.96 4.04.904 5.67L8 13.07l-4.944 2.64.904-5.67L0 6l5.503-.864M26 0l2.497 5.136L34 6l-3.96 4.04.904 5.67L26 13.07l-4.944 2.64.904-5.67L18 6l5.503-.864M45 0l2.497 5.136L53 6l-3.96 4.04.904 5.67L45 13.07l-4.944 2.64.904-5.67L37 6l5.503-.864M64 0l2.497 5.136L72 6l-3.96 4.04.904 5.67L64 13.07l-4.944 2.64.904-5.67L56 6l5.503-.864M83 0l2.497 5.136L91 6l-3.96 4.04.904 5.67L83 13.07l-4.944 2.64.904-5.67L75 6l5.503-.864M8 20l2.497 5.136L16 26l-3.96 4.04.904 5.67L8 33.07l-4.944 2.64.904-5.67L0 26l5.503-.864M26 20l2.497 5.136L34 26l-3.96 4.04.904 5.67L26 33.07l-4.944 2.64.904-5.67L18 26l5.503-.864M45 20l2.497 5.136L53 26l-3.96 4.04.904 5.67L45 33.07l-4.944 2.64.904-5.67L37 26l5.503-.864M64 20l2.497 5.136L72 26l-3.96 4.04.904 5.67L64 33.07l-4.944 2.64.904-5.67L56 26l5.503-.864M83 20l2.497 5.136L91 26l-3.96 4.04.904 5.67L83 33.07l-4.944 2.64.904-5.67L75 26l5.503-.864"/>
    <path fill="#D3D3D4" d="M83 20l2.497 5.136L91 26l-3.96 4.04.904 5.67L83 33.07"/>
    <path fill="#FFC203" d="M8 40l2.497 5.136L16 46l-3.96 4.04.904 5.67L8 53.07l-4.944 2.64.904-5.67L0 46l5.503-.864M26 40l2.497 5.136L34 46l-3.96 4.04.904 5.67L26 53.07l-4.944 2.64.904-5.67L18 46l5.503-.864M45 40l2.497 5.136L53 46l-3.96 4.04.904 5.67L45 53.07l-4.944 2.64.904-5.67L37 46l5.503-.864M64 40l2.497 5.136L72 46l-3.96 4.04.904 5.67L64 53.07l-4.944 2.64.904-5.67L56 46l5.503-.864"/>
    <path fill="#D3D3D4" d="M83 40l2.497 5.136L91 46l-3.96 4.04.904 5.67L83 53.07l-4.944 2.64.904-5.67L75 46l5.503-.864"/>
    <path fill="#FFC203" d="M8 60l2.497 5.136L16 66l-3.96 4.04.904 5.67L8 73.07l-4.944 2.64.904-5.67L0 66l5.503-.864M26 60l2.497 5.136L34 66l-3.96 4.04.904 5.67L26 73.07l-4.944 2.64.904-5.67L18 66l5.503-.864M45 60l2.497 5.136L53 66l-3.96 4.04.904 5.67L45 73.07l-4.944 2.64.904-5.67L37 66l5.503-.864M64 60l2.497 5.136L72 66l-3.96 4.04.904 5.67L64 73.07l-4.944 2.64.904-5.67L56 66l5.503-.864"/>
    <path fill="#D3D3D4" d="M64 60l2.497 5.136L72 66l-3.96 4.04.904 5.67L64 73.07M83 60l2.497 5.136L91 66l-3.96 4.04.904 5.67L83 73.07l-4.944 2.64.904-5.67L75 66l5.503-.864"/>
    <path fill="#FFC203" d="M8 80l2.497 5.136L16 86l-3.96 4.04.904 5.67L8 93.07l-4.944 2.64.904-5.67L0 86l5.503-.864M26 80l2.497 5.136L34 86l-3.96 4.04.904 5.67L26 93.07l-4.944 2.64.904-5.67L18 86l5.503-.864M45 80l2.497 5.136L53 86l-3.96 4.04.904 5.67L45 93.07l-4.944 2.64.904-5.67L37 86l5.503-.864"/>
    <path fill="#D3D3D4" d="M64 80l2.497 5.136L72 86l-3.96 4.04.904 5.67L64 93.07l-4.944 2.64.904-5.67L56 86l5.503-.864M83 80l2.497 5.136L91 86l-3.96 4.04.904 5.67L83 93.07l-4.944 2.64.904-5.67L75 86l5.503-.864"/>
    <path fill="#FFC203" d="M8 100l2.497 5.136L16 106l-3.96 4.04.904 5.67L8 113.07l-4.944 2.64.904-5.67L0 106l5.503-.864M26 100l2.497 5.136L34 106l-3.96 4.04.904 5.67L26 113.07l-4.944 2.64.904-5.67L18 106l5.503-.864M45 100l2.497 5.136L53 106l-3.96 4.04.904 5.67L45 113.07l-4.944 2.64.904-5.67L37 106l5.503-.864"/>
    <path fill="#D3D3D4" d="M64 100l2.497 5.136L72 106l-3.96 4.04.904 5.67L64 113.07l-4.944 2.64.904-5.67L56 106l5.503-.864M83 100l2.497 5.136L91 106l-3.96 4.04.904 5.67L83 113.07l-4.944 2.64.904-5.67L75 106l5.503-.864M45 100l2.497 5.136L53 106l-3.96 4.04.904 5.67L45 113.07"/>
    <path fill="#FFC203" d="M8 120l2.497 5.136L16 126l-3.96 4.04.904 5.67L8 133.07l-4.944 2.64.904-5.67L0 126l5.503-.864M26 120l2.497 5.136L34 126l-3.96 4.04.904 5.67L26 133.07l-4.944 2.64.904-5.67L18 126l5.503-.864"/>
    <path fill="#D3D3D4" d="M45 120l2.497 5.136L53 126l-3.96 4.04.904 5.67L45 133.07l-4.944 2.64.904-5.67L37 126l5.503-.864M64 120l2.497 5.136L72 126l-3.96 4.04.904 5.67L64 133.07l-4.944 2.64.904-5.67L56 126l5.503-.864M83 120l2.497 5.136L91 126l-3.96 4.04.904 5.67L83 133.07l-4.944 2.64.904-5.67L75 126l5.503-.864"/>
    <path fill="#FFC203" d="M8 140l2.497 5.136L16 146l-3.96 4.04.904 5.67L8 153.07l-4.944 2.64.904-5.67L0 146l5.503-.864M26 140l2.497 5.136L34 146l-3.96 4.04.904 5.67L26 153.07l-4.944 2.64.904-5.67L18 146l5.503-.864"/>
    <path fill="#D3D3D4" d="M45 140l2.497 5.136L53 146l-3.96 4.04.904 5.67L45 153.07l-4.944 2.64.904-5.67L37 146l5.503-.864M64 140l2.497 5.136L72 146l-3.96 4.04.904 5.67L64 153.07l-4.944 2.64.904-5.67L56 146l5.503-.864M83 140l2.497 5.136L91 146l-3.96 4.04.904 5.67L83 153.07l-4.944 2.64.904-5.67L75 146l5.503-.864M26 140l2.497 5.136L34 146l-3.96 4.04.904 5.67L26 153.07"/>
    <path fill="#FFC203" d="M8 160l2.497 5.136L16 166l-3.96 4.04.904 5.67L8 173.07l-4.944 2.64.904-5.67L0 166l5.503-.864"/>
    <path fill="#D3D3D4" d="M26 160l2.497 5.136L34 166l-3.96 4.04.904 5.67L26 173.07l-4.944 2.64.904-5.67L18 166l5.503-.864M45 160l2.497 5.136L53 166l-3.96 4.04.904 5.67L45 173.07l-4.944 2.64.904-5.67L37 166l5.503-.864M64 160l2.497 5.136L72 166l-3.96 4.04.904 5.67L64 173.07l-4.944 2.64.904-5.67L56 166l5.503-.864M83 160l2.497 5.136L91 166l-3.96 4.04.904 5.67L83 173.07l-4.944 2.64.904-5.67L75 166l5.503-.864"/>
    <path fill="#FFC203" d="M8 180l2.497 5.136L16 186l-3.96 4.04.904 5.67L8 193.07l-4.944 2.64.904-5.67L0 186l5.503-.864"/>
    <path fill="#D3D3D4" d="M26 180l2.497 5.136L34 186l-3.96 4.04.904 5.67L26 193.07l-4.944 2.64.904-5.67L18 186l5.503-.864M45 180l2.497 5.136L53 186l-3.96 4.04.904 5.67L45 193.07l-4.944 2.64.904-5.67L37 186l5.503-.864M64 180l2.497 5.136L72 186l-3.96 4.04.904 5.67L64 193.07l-4.944 2.64.904-5.67L56 186l5.503-.864M83 180l2.497 5.136L91 186l-3.96 4.04.904 5.67L83 193.07l-4.944 2.64.904-5.67L75 186l5.503-.864M8 180l2.497 5.136L16 186l-3.96 4.04.904 5.67L8 193.07M8 200l2.497 5.136L16 206l-3.96 4.04.904 5.67L8 213.07l-4.944 2.64.904-5.67L0 206l5.503-.864M26 200l2.497 5.136L34 206l-3.96 4.04.904 5.67L26 213.07l-4.944 2.64.904-5.67L18 206l5.503-.864M45 200l2.497 5.136L53 206l-3.96 4.04.904 5.67L45 213.07l-4.944 2.64.904-5.67L37 206l5.503-.864M64 200l2.497 5.136L72 206l-3.96 4.04.904 5.67L64 213.07l-4.944 2.64.904-5.67L56 206l5.503-.864M83 200l2.497 5.136L91 206l-3.96 4.04.904 5.67L83 213.07l-4.944 2.64.904-5.67L75 206l5.503-.864"/>
  </g>
</svg>
